<?xml version="1.0" standalone="no"?>
<!DOCTYPE svg PUBLIC "-//W3C//DTD SVG 20010904//EN"
 "http://www.w3.org/TR/2001/REC-SVG-20010904/DTD/svg10.dtd">
<svg version="1.0" xmlns="http://www.w3.org/2000/svg"
 width="512.000000pt" height="512.000000pt" viewBox="0 0 512.000000 512.000000"
 preserveAspectRatio="xMidYMid meet">
<metadata>
Created by potrace 1.11, written by Peter Selinger 2001-2013
</metadata>
<g transform="translate(0.000000,512.000000) scale(0.100000,-0.100000)"
fill="#000000" stroke="none">
<path d="M2379 5106 c-2 -2 -38 -7 -79 -10 -284 -23 -594 -114 -880 -257 -261
-131 -449 -267 -660 -479 -285 -285 -486 -602 -611 -970 -53 -153 -103 -366
-116 -490 -2 -25 -8 -70 -13 -100 -9 -61 -6 -444 5 -530 107 -868 626 -1607
1400 -1993 223 -111 507 -204 715 -233 19 -2 44 -7 55 -9 93 -20 464 -27 629
-12 49 4 92 10 95 11 3 2 29 7 56 11 318 42 737 210 1030 413 183 128 422 350
544 507 34 44 68 87 74 95 61 76 195 307 255 436 64 140 141 361 158 454 3 14
9 39 14 55 7 26 15 69 35 190 28 169 27 568 0 730 -84 489 -236 842 -523 1215
-94 121 -329 352 -452 444 -58 42 -112 83 -121 90 -9 8 -20 15 -25 17 -5 2
-58 33 -119 69 -135 80 -296 156 -435 205 -111 38 -344 99 -421 110 -25 3 -57
8 -70 10 -13 2 -42 7 -64 10 -50 7 -470 17 -476 11z m456 -411 c28 -3 57 -8
65 -11 8 -3 33 -8 55 -11 82 -11 273 -66 385 -110 480 -189 876 -540 1118
-993 116 -218 192 -447 227 -690 20 -136 23 -184 22 -333 0 -141 -12 -274 -32
-372 -2 -11 -8 -42 -14 -70 -47 -235 -159 -502 -303 -722 -204 -310 -479 -559
-803 -729 -209 -109 -467 -193 -666 -218 -24 -4 -62 -9 -84 -12 -68 -10 -376
-12 -465 -3 -47 5 -121 15 -165 24 -44 8 -89 17 -100 19 -32 6 -94 24 -175 50
-416 133 -791 401 -1055 751 -143 190 -257 406 -327 620 -28 86 -65 234 -73
286 -3 24 -8 51 -10 59 -12 50 -19 157 -20 315 0 211 8 303 42 460 8 39 16 79
19 91 9 48 78 241 115 327 138 314 334 570 624 816 53 45 241 168 325 214 240
129 541 223 785 244 39 3 72 7 74 9 6 5 380 -4 436 -11z"/>
<path d="M1692 4060 c-18 -11 -38 -32 -44 -48 -16 -38 -19 -2939 -3 -2997 7
-27 22 -47 44 -62 31 -21 46 -23 160 -23 136 0 175 12 202 62 10 18 14 158 15
623 1 330 2 603 3 608 0 4 319 7 709 7 545 0 713 3 732 13 13 7 34 27 46 45
19 28 22 45 22 139 -1 60 -5 119 -10 132 -11 30 -53 70 -76 73 -9 1 -323 2
-697 4 -374 1 -691 3 -705 3 l-25 1 0 515 c0 340 3 515 10 516 5 1 348 2 760
3 703 1 752 2 777 19 44 30 58 73 57 183 -1 110 -13 150 -54 182 l-28 22 -931
0 c-913 0 -932 0 -964 -20z"/>
</g>
</svg>
